Coordinates
version=1
nRows=14
nColumns=40
inDegrees=yes

Units are S.I. units (second, meters, Newtons, ...)
If the header above contains a line with 'inDegrees', this indicates whether rotational values are in degrees (yes) or radians (no).

endheader
time	pelvis_tilt	pelvis_list	pelvis_rotation	pelvis_tx	pelvis_ty	pelvis_tz	hip_flexion_r	hip_adduction_r	hip_rotation_r	knee_angle_r	knee_angle_r_beta	ankle_angle_r	subtalar_angle_r	mtp_angle_r	hip_flexion_l	hip_adduction_l	hip_rotation_l	knee_angle_l	knee_angle_l_beta	ankle_angle_l	subtalar_angle_l	mtp_angle_l	lumbar_extension	lumbar_bending	lumbar_rotation	arm_flex_r	arm_add_r	arm_rot_r	elbow_flex_r	pro_sup_r	wrist_flex_r	wrist_dev_r	arm_flex_l	arm_add_l	arm_rot_l	elbow_flex_l	pro_sup_l	wrist_flex_l	wrist_dev_l
      0.86000000	     -0.85542317	     -2.91234349	      0.20972787	     -0.55831075	      0.97794898	      0.24984301	     21.05302653	      2.76045830	    -12.87957739	      7.57628699	      0.13223115	    -14.15182314	      0.00000000	      0.00000000	    -10.93931885	     -2.56382917	    -10.05714712	     18.29866304	      0.31937192	      7.19446905	      0.00000000	      0.00000000	    -11.28086253	      3.58860515	     -4.88492819	    -14.24718433	      1.38546244	    -15.44098178	     57.49412548	     88.58425572	     28.13875281	     28.64883946	      3.78064352	     -4.19053118	      5.24776540	     62.73555922	     89.39498745	     31.03769970	     32.41983427
      0.87000000	     -0.77479714	     -3.15638732	      0.27970967	     -0.54848485	      0.97880144	      0.25117667	     20.68113075	      3.02186575	    -12.65377150	      8.14110051	      0.14208901	    -14.35684826	      0.00000000	      0.00000000	    -11.14696484	     -3.08068173	    -10.00600750	     19.14194055	      0.33408989	      6.16590802	      0.00000000	      0.00000000	    -11.22352155	      3.95703894	     -4.91529273	    -14.33029132	      1.32888762	    -15.53779922	     57.22797872	     88.59403276	     28.12732627	     28.70297366	      3.35907007	     -3.93592134	      5.20496899	     62.10258171	     89.40543542	     31.13275046	     32.51834856
      0.88000000	     -0.73979421	     -3.65736158	      0.37364980	     -0.53812371	      0.97970968	      0.25265655	     20.23755411	      3.57488117	    -12.86260197	      8.50589303	      0.14845584	    -14.58528312	      0.00000000	      0.00000000	    -11.26234599	     -3.95526968	    -10.35693024	     20.10958663	      0.35097850	      4.82033029	      0.00000000	      0.00000000	    -11.02824783	      4.59737674	     -4.85684854	    -14.57427091	      1.25193338	    -15.70424022	     57.09973520	     88.60122782	     28.12414490	     28.81954077	      2.86394698	     -3.64200690	      5.14512298	     61.45992953	     89.40849898	     31.41928258	     32.64748728
      0.89000000	     -0.66585851	     -3.97565297	      0.43914313	     -0.52825479	      0.98086487	      0.25414989	     19.80771221	      3.95587794	    -12.62459978	      8.96115959	      0.15640174	    -14.59549872	      0.00000000	      0.00000000	    -11.29006335	     -4.62913976	    -10.47750733	     21.22304657	      0.37041204	      3.49758721	      0.00000000	      0.00000000	    -10.94714837	      5.04569887	     -4.87111181	    -14.65413259	      1.20193769	    -15.85608838	     56.88626711	     88.60814085	     28.10997561	     28.88795543	      2.42861111	     -3.43048859	      5.08217339	     60.81726081	     89.41685160	     31.53509178	     32.74111460
      0.90000000	     -0.63334089	     -4.33915800	      0.51389220	     -0.51818586	      0.98202085	      0.25577473	     19.36742156	      4.40549340	    -12.51298453	      9.34058596	      0.16302398	    -14.46058931	      0.00000000	      0.00000000	    -11.18937916	     -5.42211820	    -10.81118950	     22.47716240	      0.39230049	      1.92482541	      0.00000000	      0.00000000	    -10.79548148	      5.53237815	     -4.85182011	    -14.80377286	      1.16362353	    -16.04487912	     56.74175219	     88.61396290	     28.09260658	     28.96312534	      1.95765981	     -3.24465822	      5.01569139	     60.24813877	     89.42024397	     31.66221262	     32.83498756
      0.91000000	     -0.59676199	     -4.70073251	      0.58811460	     -0.50823286	      0.98324075	      0.25739086	     18.91570698	      4.86444265	    -12.37221881	      9.69954635	      0.16928902	    -14.19195981	      0.00000000	      0.00000000	    -10.97412658	     -6.25645957	    -11.20020419	     23.90873487	      0.41728614	      0.20343193	      0.00000000	      0.00000000	    -10.64360250	      6.01959628	     -4.83465688	    -14.93994314	      1.12986210	    -16.26102647	     56.62565725	     88.61820098	     28.07124200	     29.03692899	      1.48926037	     -3.06935935	      4.96256082	     59.71615725	     89.43131088	     31.78411504	     32.92347020
      0.92000000	     -0.78135069	     -5.31963773	      0.64187010	     -0.49793800	      0.98407507	      0.25923018	     18.65526163	      5.61264449	    -12.51510899	     10.00612745	      0.17463987	    -13.86448118	      0.00000000	      0.00000000	    -10.45778794	     -7.44183189	    -11.78604119	     25.50136780	      0.44508283	     -1.53105102	      0.00000000	      0.00000000	    -10.17125266	      6.78681701	     -4.66991683	    -15.28820270	      1.11962340	    -16.67141389	     56.72107103	     88.62935493	     28.07470917	     29.26401300	      1.01089543	     -2.88200827	      4.98945237	     59.10355432	     89.42872160	     32.28406873	     33.02166597
      0.93000000	     -0.68512239	     -5.50727113	      0.74187503	     -0.48848573	      0.98542585	      0.26088674	     18.12493694	      5.91510491	    -12.22501323	     10.32661513	      0.18023343	    -13.36208633	      0.00000000	      0.00000000	    -10.03395313	     -8.17686353	    -12.11488296	     27.28127211	      0.47614802	     -3.45936000	      0.00000000	      0.00000000	    -10.16260000	      7.07098695	     -4.67782966	    -15.33314397	      1.11873038	    -16.88397785	     56.65760682	     88.61959873	     28.05944344	     29.30480511	      0.63579654	     -2.83317551	      4.99013195	     58.71860960	     89.42563250	     32.38976418	     33.08407875
      0.94000000	     -0.85380904	     -5.95973015	      0.84353953	     -0.47862747	      0.98621477	      0.26273377	     17.86962795	      6.49226561	    -12.30682993	     10.69462773	      0.18665647	    -12.65442774	      0.00000000	      0.00000000	     -9.28254840	     -9.27078485	    -12.56709766	     29.13492312	      0.50850034	     -5.68643223	      0.00000000	      0.00000000	     -9.76673999	      7.65061185	     -4.62843208	    -15.58353843	      1.14746751	    -17.28297833	     56.80166755	     88.62261737	     28.04437284	     29.39448646	      0.16609144	     -2.79220014	      5.06610474	     58.38922012	     89.43374101	     32.69345575	     33.16661033
      0.95000000	     -0.73963920	     -6.07824551	      0.94084502	     -0.46963457	      0.98745092	      0.26441722	     17.30130374	      6.74650600	    -12.04368594	     10.94250474	      0.19098274	    -12.05136619	      0.00000000	      0.00000000	     -8.62951608	    -10.00866655	    -12.87422930	     31.24641124	      0.54535276	     -7.66908436	      0.00000000	      0.00000000	     -9.82358419	      7.84994288	     -4.61399280	    -15.57426116	      1.15502465	    -17.46394991	     56.82241353	     88.60466544	     28.03145379	     29.41068152	     -0.10571019	     -2.81140491	      5.08691661	     58.08790347	     89.43509853	     32.79620563	     33.21053412
      0.96000000	     -1.24393583	     -6.61118809	      1.21520548	     -0.46017730	      0.98751424	      0.26614899	     17.45240457	      7.34330502	    -12.36583173	     11.34974345	      0.19809039	    -11.27915863	      0.00000000	      0.00000000	     -7.16194241	    -11.28158952	    -12.92036967	     33.55080539	      0.58557202	     -9.90100289	      0.00000000	      0.00000000	     -9.00775588	      8.52996676	     -4.60539947	    -15.95522491	      1.22969049	    -17.99388919	     57.10475168	     88.59781325	     28.01956781	     29.47927977	     -0.43353602	     -2.84793134	      5.40504981	     57.67077352	     89.43388844	     33.41916858	     33.27133671
      0.97000000	     -1.13137507	     -6.77426649	      1.31266557	     -0.45143780	      0.98848797	      0.26797884	     16.91743431	      7.65569823	    -12.17158596	     11.65504012	      0.20341882	    -10.50100700	      0.00000000	      0.00000000	     -6.34434601	    -12.10011106	    -13.07591086	     35.76344262	      0.62418983	    -12.31762875	      0.00000000	      0.00000000	     -9.10970153	      8.76748950	     -4.56517818	    -15.95878576	      1.25275475	    -18.16681989	     57.29852274	     88.56657669	     28.00769051	     29.43113310	     -0.69244115	     -2.99122859	      5.48886835	     57.66859285	     89.43132533	     33.56212761	     33.30547091
      0.98000000	     -1.09983206	     -6.98964690	      1.46843815	     -0.44277809	      0.98918977	      0.26969154	     16.47211980	      7.99544081	    -12.16001901	     11.95240763	      0.20860887	     -9.71377399	      0.00000000	      0.00000000	     -5.32679751	    -12.99389267	    -13.11626462	     38.08145472	      0.66464677	    -14.77789751	      0.00000000	      0.00000000	     -9.08852945	      9.07305372	     -4.53725175	    -16.00600712	      1.25491197	    -18.35263207	     57.55366588	     88.53518420	     27.97787931	     29.35676724	     -0.91027370	     -3.12758612	      5.60209468	     57.61844169	     89.43197321	     33.72991276	     33.34133747
      0.99000000	     -1.06107719	     -7.18016329	      1.62392149	     -0.43443510	      0.98980403	      0.27139496	     16.03876064	      8.30942556	    -12.15259478	     12.24459830	      0.21370856	     -8.96389696	      0.00000000	      0.00000000	     -4.22207923	    -13.83523025	    -13.00447596	     40.45793068	      0.70612410	    -17.19609179	      0.00000000	      0.00000000	     -9.10011628	      9.33881823	     -4.47573578	    -16.02207577	      1.25198787	    -18.48408005	     57.83032981	     88.49510275	     27.93963256	     29.25630700	     -1.04855893	     -3.29102888	      5.73900715	     57.60886875	     89.43190268	     33.89481069	     33.36258242
